<svg width="151" height="148" viewBox="0 0 151 148" fill="none" xmlns="http://www.w3.org/2000/svg">
<path d="M57.2034 2.86738C58.6547 2.63338 60.1408 2.74814 61.5392 3.20222C62.1947 3.4287 64.5922 4.25692 65.7766 6.51325C66.2265 7.37016 66.3353 8.40469 66.5532 10.4737C66.6892 11.7661 67.1946 12.6883 67.2072 14.2658C67.1923 15.5442 66.9937 16.8138 66.6176 18.0355C66.0546 19.9476 66.4368 21.0279 66.151 21.3868C64.9991 22.8335 61.4552 21.7364 61.4181 23.6116C61.3952 24.7695 63.3889 29.7503 63.3606 31.1068C63.2947 34.2678 57.9966 31.0056 54.8036 26.3188C54.6587 26.1061 52.4926 24.8611 52.7007 22.8117C52.8119 21.7169 53.6954 16.5768 53.6007 15.9154C53.2583 13.5247 52.0515 13.2432 51.0774 10.3582C50.8135 9.634 50.7399 8.85413 50.8635 8.09329C50.987 7.33245 51.3037 6.61616 51.7831 6.01306C53.1656 4.36043 55.0842 3.24699 57.2034 2.86738Z" fill="#D19E8A"/>
<path d="M59.0909 21.1895C60.6849 22.2912 63.7394 22.2171 63.7394 22.2171L63.7492 22.2883C62.5629 22.4431 61.4389 22.56 61.4181 23.6116C61.4742 24.2 61.599 24.7797 61.7901 25.339C59.7042 24.1622 59.0909 21.1895 59.0909 21.1895Z" fill="#B5806D"/>
<path fill-rule="evenodd" clip-rule="evenodd" d="M54.816 11.8808C54.9978 11.8038 55.2006 11.7917 55.3903 11.8466C55.2393 11.9329 55.0961 12.0323 54.9625 12.1437C54.9027 12.1933 54.8443 12.2445 54.7872 12.2971C54.8968 12.3879 54.9909 12.4965 55.0655 12.6188C55.1767 12.7952 55.2518 12.9919 55.2866 13.1976C55.3274 13.4009 55.3245 13.6107 55.2781 13.8128C55.2318 14.015 55.1429 14.205 55.0175 14.3701C55.0021 13.9993 54.9647 13.6298 54.9057 13.2635C54.8483 12.968 54.7773 12.6754 54.693 12.3866C54.6638 12.4151 54.6351 12.444 54.6067 12.4733C54.5387 12.536 54.4759 12.605 54.412 12.6751C54.3639 12.728 54.3151 12.7815 54.2631 12.8335C54.1433 12.9688 54.0155 13.0967 53.8804 13.2166C53.8868 13.0268 53.9312 12.8401 54.0108 12.6677C54.0904 12.4943 54.1994 12.3361 54.333 12.1999C54.4702 12.0613 54.6347 11.9526 54.816 11.8808Z" fill="#B5806D"/>
<path d="M58.0054 16.597C58.0054 16.597 57.1718 13.1285 57.3105 12.1322C57.5039 10.744 57.6006 10.05 57.4299 9.48717C57.1569 8.58633 57.5954 8.46497 58.1523 7.48956C58.6751 6.57411 60.325 7.29742 60.7338 7.14209C61.8814 6.70606 61.8347 6.22101 62.6125 6.16589C63.4103 6.10936 63.9943 5.89317 64.5144 6.4045C65.0448 6.9264 66.0217 8.31743 66.2576 8.07264C66.7537 7.3993 67.0549 6.60215 67.1283 5.76866C67.1272 4.94774 66.9263 4.13946 66.5429 3.41386C66.3503 2.99442 65.6334 1.43352 64.1648 1.02773C63.319 0.793969 63.1605 1.2023 61.3362 1.32609C59.444 1.45454 59.3816 1.03114 58.3926 1.3218C57.2978 1.64361 57.344 2.17097 55.4773 3.21294C54.8583 3.54741 54.2216 3.84796 53.5701 4.11326C51.2241 5.13185 50.9148 4.97484 50.3777 5.50348C49.2199 6.64321 49.4271 8.58406 49.4772 9.05286C49.6182 10.3732 50.1368 10.7659 51.2754 12.8731C53.0784 16.2102 52.7344 17.6219 53.3887 18.0864C53.7097 18.3142 55.3826 17.1016 55.3698 16.5113C55.3531 15.7374 54.7941 15.4979 54.1288 14.3849C53.6641 13.607 52.9966 12.4902 53.3666 11.4694C53.5905 10.8524 53.8476 11.0185 54.4845 11.0721C55.3489 11.1449 55.7841 12.3461 56.1379 13.2274C56.3933 13.8652 56.5069 14.551 56.4709 15.2372C56.3925 16.7681 58.3081 17.2036 58.0054 16.597Z" fill="#2E2C33"/>
<path d="M66.0781 13.1117C66.3461 13.1094 66.5611 12.837 66.5582 12.5032C66.5554 12.1695 66.3358 11.9008 66.0678 11.9031C65.7998 11.9054 65.5848 12.1778 65.5877 12.5115C65.5905 12.8453 65.8101 13.114 66.0781 13.1117Z" fill="#0A0709"/>
<path d="M61.7031 13.1497C61.9711 13.1474 62.1861 12.875 62.1832 12.5412C62.1804 12.2075 61.9608 11.9387 61.6928 11.941C61.4248 11.9433 61.2098 12.2158 61.2127 12.5495C61.2155 12.8833 61.4351 13.152 61.7031 13.1497Z" fill="#0A0709"/>
<path d="M63.7564 11.4458C63.8155 11.4453 63.8732 11.4275 63.9224 11.3947C64.35 11.0935 64.8586 10.9288 65.3814 10.9223C65.9041 10.9157 66.4167 11.0676 66.8517 11.3579C66.9171 11.406 66.9987 11.4261 67.0789 11.4139C67.159 11.4018 67.2311 11.3583 67.2793 11.293C67.3274 11.2277 67.3478 11.146 67.3359 11.0657C67.3241 10.9854 67.2809 10.9131 67.2158 10.8646C66.6774 10.5056 66.0442 10.3155 65.3972 10.3188C64.7503 10.322 64.1191 10.5185 63.5842 10.883C63.5291 10.9196 63.4873 10.973 63.465 11.0353C63.4427 11.0976 63.4411 11.1655 63.4605 11.2288C63.4798 11.2921 63.5191 11.3474 63.5725 11.3865C63.6258 11.4256 63.6903 11.4464 63.7564 11.4458Z" fill="#494752"/>
<path d="M59.2213 11.4846C59.2804 11.4841 59.338 11.4663 59.3872 11.4335C59.8161 11.1355 60.3242 10.9727 60.8461 10.966C61.3681 10.9593 61.8801 11.1089 62.3165 11.3958C62.3488 11.4197 62.3855 11.4371 62.4245 11.4469C62.4635 11.4567 62.504 11.4587 62.5438 11.4528C62.5835 11.4468 62.6217 11.4332 62.6562 11.4125C62.6907 11.3918 62.7207 11.3645 62.7447 11.3322C62.7686 11.2998 62.786 11.2631 62.7957 11.2241C62.8055 11.185 62.8075 11.1444 62.8016 11.1046C62.7957 11.0648 62.782 11.0266 62.7614 10.992C62.7407 10.9575 62.7134 10.9274 62.6812 10.9034C62.1426 10.5444 61.5093 10.3543 60.8623 10.3576C60.2153 10.3609 59.584 10.5573 59.0491 10.9218C58.994 10.9584 58.9522 11.0118 58.9298 11.0741C58.9075 11.1364 58.9059 11.2043 58.9253 11.2676C58.9447 11.3309 58.984 11.3862 59.0373 11.4253C59.0906 11.4644 59.1552 11.4852 59.2213 11.4846Z" fill="#494752"/>
<path d="M63.3404 11.5741C63.1813 12.0848 63.2058 12.6351 63.4095 13.1296C63.5861 13.6269 63.8403 14.093 64.1626 14.5106L64.4185 14.7973C64.4497 14.8256 64.4749 14.8599 64.4927 14.8981C64.5106 14.9363 64.5206 14.9777 64.5222 15.0199C64.5034 15.2268 64.4038 15.4179 64.2451 15.5517C63.8548 15.8452 63.3687 15.9812 62.8831 15.9328C63.1354 16.0338 63.4082 16.0729 63.6788 16.047C63.9493 16.0211 64.2098 15.9309 64.4384 15.7838C64.5645 15.6972 64.6702 15.584 64.7479 15.4522C64.8257 15.3204 64.8736 15.1731 64.8885 15.0207C64.8896 14.8477 64.8249 14.6806 64.7076 14.5536L64.4605 14.2641C64.1584 13.873 63.898 13.4513 63.6835 13.0059C63.4495 12.5656 63.3314 12.0728 63.3404 11.5741Z" fill="#B5806D"/>
<path d="M61.8938 18.0771C61.8938 18.0771 63.8203 19.8459 65.5142 18.0461L61.8938 18.0771Z" fill="#9D6D5C"/>
<path d="M62.3235 27.0702C62.3235 27.0702 65.709 36.8731 52.7638 22.3109L47.1394 26.988C45.9738 27.974 45.1698 29.321 44.8547 30.8159C44.5792 32.9367 44.3036 35.0575 44.028 37.1783C42.9804 45.2412 42.9731 53.4055 44.0062 61.4703C44.285 63.6453 44.5637 65.8203 44.8423 67.9954L69.0277 71.3208C67.6672 66.6566 66.8637 61.8472 66.6342 56.9935C66.362 51.1838 67.0806 48.7119 66.8063 43.8931C66.4286 38.0453 64.9054 32.329 62.3235 27.0702Z" fill="#FFBA55"/>
<path d="M65.8511 66.189C65.413 65.9376 64.9668 65.7096 64.5271 65.4704L63.2359 64.7095C62.3948 64.1796 61.591 63.5924 60.8304 62.9521C60.0687 62.3186 59.3797 61.6023 58.7761 60.8163C58.4782 60.4201 58.2129 60.0003 57.9829 59.5611C57.7378 59.1253 57.5514 58.6589 57.4288 58.1741C57.5677 59.1868 57.9463 60.1516 58.5331 60.988C59.1052 61.834 59.7942 62.5944 60.5796 63.2466C61.3563 63.9011 62.1958 64.4768 63.086 64.9653L64.4429 65.6393C64.914 65.8229 65.3784 66.0177 65.8511 66.189Z" fill="#E6952A"/>
<path d="M53.5181 33.2379C53.5181 33.2379 54.6136 30.6236 68.9493 51.242L63.5022 58.3213C63.5022 58.3213 55.5936 51.8042 52.0113 46.178" fill="#FFBA55"/>
<path d="M53.5181 33.2379C53.5867 33.1201 53.7409 33.1199 53.8612 33.132C53.9862 33.1556 54.1088 33.1909 54.2272 33.2374C54.4557 33.3469 54.6748 33.4749 54.8825 33.6201C55.0943 33.7582 55.2964 33.9108 55.4874 34.0768C55.6786 34.2408 55.8849 34.391 56.0641 34.5676C56.8117 35.2454 57.5186 35.9655 58.2052 36.7027C59.5758 38.1814 60.8381 39.7497 62.104 41.3138C63.3606 42.8853 64.5743 44.49 65.7624 46.112C66.9703 47.7206 68.1025 49.3815 69.2742 51.0154L69.443 51.2508L66.5329 55.0186L63.5551 58.8396L63.2733 58.5997C62.1992 57.6853 61.1617 56.7473 60.1508 55.7732C59.1399 54.8011 58.1465 53.8111 57.185 52.7901C56.223 51.7697 55.2908 50.7201 54.4208 49.6191C53.5407 48.528 52.7357 47.3784 52.0113 46.178C52.825 47.3124 53.6991 48.402 54.6298 49.4423C55.5626 50.4784 56.5381 51.4742 57.5209 52.4609C58.5113 53.441 59.5327 54.3894 60.5701 55.3188C61.6121 56.2411 62.6607 57.1647 63.731 58.0426L63.217 58.101L65.9186 54.5446L68.6356 51L68.6243 51.4684C67.4705 49.8281 66.3333 48.1748 65.1618 46.548C64.007 44.9083 62.8166 43.2958 61.6321 41.6787C60.4301 40.0762 59.2181 38.4777 57.9226 36.9526C57.2838 36.1823 56.6244 35.429 55.9237 34.7164C55.7554 34.5302 55.5627 34.3729 55.3827 34.1995C55.2036 34.0261 55.014 33.864 54.8149 33.7142C54.6225 33.5562 54.4177 33.4143 54.2022 33.2898C54.0913 33.2363 53.9757 33.1931 53.857 33.1606C53.7423 33.1407 53.5952 33.1271 53.5181 33.2379Z" fill="#E6952A"/>
<path d="M90.7042 106.137L91.999 112.704L104.69 114.751L87.7196 119.911L84.1475 108.131L90.7042 106.137Z" fill="#D19E8A"/>
<path d="M106.569 114.812L106.558 114.773C106.467 114.475 106.296 114.208 106.063 114.002C105.83 113.796 105.544 113.658 105.238 113.605L92.0115 111.304C91.8821 111.281 91.749 111.305 91.6353 111.371C91.5216 111.437 91.4347 111.54 91.3897 111.664L90.0537 115.334C90.0063 115.464 89.9124 115.572 89.7901 115.637C89.6678 115.702 89.5259 115.72 89.3916 115.686L86.2804 114.905C86.1843 114.881 86.0835 114.883 85.9884 114.91C85.8932 114.938 85.8071 114.99 85.7388 115.062C85.6705 115.134 85.6225 115.223 85.5996 115.319C85.5767 115.416 85.5798 115.517 85.6086 115.612L87.1562 120.715C87.1993 120.858 87.2971 120.977 87.4281 121.047C87.559 121.117 87.7124 121.132 87.8545 121.089L106.196 115.511C106.338 115.468 106.457 115.37 106.527 115.239C106.597 115.108 106.612 114.954 106.569 114.812Z" fill="#251D1B"/>
<path d="M44.38 63.2183C44.38 63.2183 40.5153 80.3722 47.9012 80.0647H75.9792L83.5436 110.637C83.5436 110.637 86.452 111.825 88.9766 111.295C90.7108 110.932 92.2052 109.275 93.244 108.428C93.244 108.428 87.7179 64.5985 77.264 63.2675C64.2242 61.6072 44.38 63.2183 44.38 63.2183Z" fill="#808B49"/>
<path d="M75.9792 80.0647C76.6264 79.251 77.2049 78.3846 77.7082 77.4747C77.9435 77.0253 78.1845 76.5764 78.3949 76.1026C78.6176 75.6327 78.8085 75.1457 79.0648 74.6461C79.1361 75.1971 79.1093 75.7565 78.9855 76.2981C78.8714 76.8449 78.6761 77.3715 78.4059 77.8602C78.1367 78.3518 77.7927 78.7984 77.3863 79.1839C76.991 79.5817 76.5095 79.8831 75.9792 80.0647Z" fill="#5E7C24"/>
<path d="M96.3266 63.1414C100.941 63.1414 100.949 55.9592 96.3266 55.9592C91.7117 55.9592 91.704 63.1414 96.3266 63.1414Z" fill="#6F56A5"/>
<path d="M68.788 51.6428L90.3592 54.5227C90.3592 54.5227 99.1693 51.2489 100.964 55.8918C101.201 56.5331 101.208 57.237 100.983 57.8828C100.445 59.4979 99.1729 62.6868 98.2412 60.0261L97.2833 57.2902C97.2833 57.2902 93.9766 59.5832 90.7818 58.4461C89.6275 58.0353 74.1791 61.0484 65.8511 59.0141L63.5022 58.3213L68.788 51.6428Z" fill="#D19E8A"/>
<path d="M25.4098 147.328C35.7314 147.328 44.0987 138.926 44.0987 128.562C44.0987 118.198 35.7314 109.796 25.4098 109.796C15.0882 109.796 6.72095 118.198 6.72095 128.562C6.72095 138.926 15.0882 147.328 25.4098 147.328Z" fill="#1E1D22"/>
<path fill-rule="evenodd" clip-rule="evenodd" d="M35.109 128.562C35.109 133.941 30.7665 138.301 25.4097 138.301C20.053 138.301 15.7104 133.941 15.7104 128.562C15.7104 123.183 20.053 118.823 25.4097 118.823C30.7665 118.823 35.109 123.183 35.109 128.562ZM25.0408 131.002C26.8699 131.002 26.8729 128.155 25.0408 128.155C23.2117 128.155 23.2087 131.002 25.0408 131.002Z" fill="#848384"/>
<path d="M126.811 147.328C137.133 147.328 145.5 138.926 145.5 128.562C145.5 118.198 137.133 109.796 126.811 109.796C116.489 109.796 108.122 118.198 108.122 128.562C108.122 138.926 116.489 147.328 126.811 147.328Z" fill="#1E1D22"/>
<path fill-rule="evenodd" clip-rule="evenodd" d="M136.51 128.562C136.51 133.941 132.168 138.301 126.811 138.301C121.454 138.301 117.112 133.941 117.112 128.562C117.112 123.183 121.454 118.823 126.811 118.823C132.168 118.823 136.51 123.183 136.51 128.562ZM126.442 132.451C130.134 132.451 130.14 126.706 126.442 126.706C122.75 126.706 122.744 132.451 126.442 132.451Z" fill="#848384"/>
<path d="M99.1682 53.8046L111.812 47.7654L112.46 61.6035L100.303 57.6634L99.1682 53.8046Z" fill="#8E6CD8"/>
<path d="M112.394 61.6064C113.579 61.5507 114.395 58.4077 114.216 54.5864C114.037 50.7651 112.931 47.7125 111.746 47.7682C110.561 47.8239 109.745 50.9668 109.924 54.7881C110.103 58.6095 111.209 61.6621 112.394 61.6064Z" fill="#FFBA55"/>
<path d="M111.746 47.7682C111.598 47.8103 111.461 47.8845 111.345 47.9854C111.229 48.0863 111.136 48.2115 111.074 48.3522C110.927 48.6213 110.814 48.9073 110.737 49.204C110.576 49.8028 110.465 50.4139 110.404 51.031C110.178 53.5195 110.296 56.0274 110.755 58.4835C110.873 59.0922 111.041 59.6901 111.257 60.2711C111.361 60.5592 111.5 60.8334 111.671 61.0876C111.747 61.2218 111.85 61.3378 111.975 61.4275C112.1 61.5171 112.243 61.5782 112.394 61.6064C112.227 61.6175 112.06 61.5895 111.906 61.5248C111.752 61.4601 111.614 61.3604 111.505 61.2334C111.27 60.9986 111.068 60.7328 110.905 60.4434C110.587 59.8715 110.334 59.2653 110.152 58.6364C109.44 56.1318 109.316 53.4959 109.792 50.9356C109.915 50.2925 110.11 49.6653 110.373 49.066C110.508 48.7626 110.684 48.479 110.896 48.2232C110.993 48.0867 111.12 47.9745 111.267 47.8955C111.415 47.8166 111.579 47.7729 111.746 47.7682Z" fill="#E6952A"/>
<path d="M150.704 126.424C150.704 126.424 133.672 117.872 103.391 129.274H49.3032C49.3032 129.274 31.324 140.676 1.04333 132.125C1.04333 132.125 -2.74176 125.474 6.72096 111.221C6.72096 111.221 12.3986 95.0685 16.1837 92.218L68.3613 92.2454C68.3613 92.2454 67.1436 118.624 86.0691 120.524C104.995 122.425 103.102 104.372 103.102 104.372L100.597 64.4176C100.554 61.8838 100.381 59.3539 100.08 56.8378C99.7357 53.9038 98.7418 54.3117 99.9246 54.9056C101.817 55.8558 120.424 76.0652 124.209 104.57C124.209 104.57 145.973 101.72 150.704 126.424Z" fill="#8E6CD8"/>
<path d="M14.112 92.9701H65.7481C68.8835 92.9701 71.4257 90.0809 71.4257 86.5174C71.4257 82.9539 68.8835 80.0647 65.7481 80.0647H14.112C10.9765 80.0647 8.43433 82.9539 8.43433 86.5174C8.43433 90.0809 10.9765 92.9701 14.112 92.9701Z" fill="#6F56A5"/>
<path d="M49.3032 129.274C50.9825 126.702 52.2947 123.907 53.2016 120.97C54.0852 118.075 54.462 114.984 53.7742 112.12C53.0483 109.258 51.2969 106.764 48.8534 105.111C48.7035 105.004 48.5637 104.885 48.406 104.787L47.9333 104.496C47.6159 104.305 47.3125 104.093 46.9844 103.918C46.3135 103.59 45.6799 103.207 44.9691 102.938L43.9271 102.498C43.5907 102.359 43.2474 102.236 42.8986 102.131C42.1928 101.911 41.4662 101.73 40.7343 101.575C37.7843 100.957 34.7628 100.752 31.7566 100.967C30.2486 101.066 28.748 101.256 27.2627 101.535C25.7754 101.816 24.3092 102.203 22.8517 102.628C17.0209 104.541 11.5637 107.448 6.72095 111.221L8.44626 109.672L10.2523 108.212L12.1221 106.828C12.7669 106.398 13.4047 105.952 14.0588 105.532C16.7044 103.87 19.5218 102.5 22.4617 101.445C25.4284 100.402 28.5136 99.7349 31.6456 99.4591C34.7965 99.1958 37.9688 99.3828 41.0671 100.015C41.8419 100.185 42.6111 100.383 43.3751 100.628C43.7515 100.749 44.1501 100.886 44.5202 101.048L45.6053 101.516C46.3362 101.801 47.0289 102.218 47.738 102.576C48.0882 102.767 48.4186 102.998 48.7594 103.208C49.1044 103.414 49.4343 103.645 49.7465 103.898C52.4275 105.797 54.2971 108.637 54.9845 111.853C55.2906 113.433 55.3331 115.052 55.1102 116.645C54.8907 118.209 54.4973 119.744 53.9374 121.22C53.3754 122.677 52.7017 124.087 51.9222 125.439C51.1579 126.789 50.2819 128.072 49.3032 129.274Z" fill="#6F56A5"/>
<path d="M43.0579 108.428C42.1983 109.442 41.231 110.358 40.173 111.162C39.1221 111.979 38.0162 112.723 36.8634 113.389C36.2994 113.747 35.7013 114.037 35.1107 114.345C34.524 114.663 33.9134 114.926 33.3084 115.204C33.0064 115.345 32.7001 115.475 32.3947 115.607L31.4622 115.962C30.8374 116.189 30.2221 116.447 29.5886 116.648C27.0624 117.47 24.4694 118.069 21.8392 118.44C20.5332 118.656 19.2042 118.71 17.8917 118.827C16.5699 118.868 15.2479 118.87 13.9316 118.823C15.2227 118.516 16.5139 118.307 17.7946 118.049L19.7074 117.634C20.3437 117.497 20.9842 117.39 21.6114 117.215C22.241 117.054 22.8707 116.898 23.5028 116.757C24.1378 116.628 24.7521 116.415 25.3766 116.248C25.996 116.062 26.6323 115.935 27.2433 115.724L29.0884 115.133C29.7077 114.95 30.3071 114.711 30.9178 114.502L31.8291 114.176C32.1272 114.053 32.4244 113.928 32.726 113.814C33.9382 113.367 35.1077 112.821 36.2861 112.29C36.8678 112.01 37.4567 111.739 38.0268 111.434L38.8927 110.99L39.7404 110.514C40.8859 109.884 41.9936 109.187 43.0579 108.428Z" fill="#6F56A5"/>
<path d="M45.2712 114.695C44.4116 115.709 43.4443 116.626 42.3864 117.43C41.3354 118.247 40.2296 118.991 39.0768 119.656C38.5128 120.014 37.9146 120.304 37.3241 120.612C36.7374 120.93 36.1267 121.193 35.5218 121.471C35.2198 121.612 34.9135 121.742 34.608 121.875L33.6756 122.229C33.0508 122.456 32.4355 122.715 31.802 122.916C29.2758 123.737 26.6828 124.337 24.0526 124.707C22.7465 124.923 21.4176 124.977 20.1051 125.095C18.7832 125.136 17.4612 125.137 16.145 125.09C17.4361 124.784 18.7272 124.574 20.0079 124.317L21.9208 123.902C22.557 123.764 23.1976 123.657 23.8248 123.482C24.4544 123.321 25.0841 123.166 25.7161 123.025C26.3512 122.895 26.9655 122.683 27.59 122.515C28.2094 122.329 28.8457 122.203 29.4567 121.991L31.3017 121.401C31.921 121.217 32.5204 120.978 33.1313 120.77L34.0425 120.443C34.3406 120.321 34.6378 120.196 34.9394 120.081C36.1515 119.634 37.3211 119.089 38.4995 118.558C39.0812 118.278 39.6701 118.006 40.2402 117.701L41.1061 117.258L41.9539 116.781C43.0993 116.151 44.207 115.455 45.2712 114.695Z" fill="#6F56A5"/>
<path d="M106.627 62.4111C106.037 61.8923 105.495 61.3471 104.961 60.797L103.381 59.1477C102.862 58.5959 102.334 58.0573 101.789 57.5464C101.519 57.2913 101.233 57.0532 100.933 56.8332C100.641 56.5992 100.294 56.4425 99.9246 56.3775C100.323 56.2805 100.742 56.3189 101.116 56.4865C101.488 56.6366 101.843 56.8279 102.173 57.0567C102.82 57.5059 103.418 58.022 103.957 58.5964C104.492 59.1621 104.987 59.7647 105.438 60.3998C105.897 61.0307 106.296 61.7042 106.627 62.4111Z" fill="#6F56A5"/>
<path d="M124.209 104.57C121.416 105.296 118.751 106.446 116.306 107.98C115.106 108.734 113.97 109.585 112.908 110.524C111.842 111.448 110.865 112.472 109.993 113.582C109.099 114.677 108.303 115.849 107.614 117.083C107.424 117.383 107.269 117.702 107.104 118.016C106.945 118.334 106.764 118.641 106.623 118.968C106.34 119.62 106.023 120.26 105.773 120.93C104.736 123.636 103.939 126.428 103.391 129.274C103.32 126.309 103.728 123.351 104.6 120.516C105.466 117.63 106.875 114.936 108.753 112.58C111.606 109.051 115.478 106.491 119.84 105.251C121.261 104.838 122.729 104.609 124.209 104.57Z" fill="#6F56A5"/>
<path d="M35.1412 78.5238H16.4015L12.1751 74.0736C12.1121 74.0043 12.0348 73.9496 11.9487 73.913C11.8626 73.8764 11.7696 73.8589 11.6761 73.8616C11.5825 73.8643 11.4907 73.8872 11.4068 73.9288C11.323 73.9703 11.2491 74.0295 11.1901 74.1023C11.0621 74.257 10.9942 74.4528 10.999 74.6537C11.0037 74.8546 11.0808 75.047 11.216 75.1955L14.3767 78.5238H9.33468V75.0117C9.34472 74.914 9.33417 74.8153 9.30372 74.722C9.27327 74.6287 9.22361 74.5428 9.15793 74.4699C9.09225 74.397 9.01203 74.3388 8.92245 74.2989C8.83287 74.259 8.73593 74.2384 8.63789 74.2384C8.53986 74.2384 8.44291 74.259 8.35333 74.2989C8.26375 74.3388 8.18352 74.397 8.11785 74.4699C8.05217 74.5428 8.0025 74.6287 7.97205 74.722C7.94161 74.8153 7.93106 74.914 7.9411 75.0117V78.5239H4.49881C4.30771 78.5435 4.13068 78.6334 4.00197 78.7762C3.87325 78.919 3.802 79.1046 3.802 79.297C3.802 79.4893 3.87325 79.6749 4.00197 79.8177C4.13068 79.9605 4.30771 80.0504 4.49881 80.0701H7.9411V83.5822C7.93106 83.6799 7.94161 83.7786 7.97205 83.8719C8.0025 83.9652 8.05217 84.0511 8.11785 84.124C8.18352 84.1969 8.26375 84.2551 8.35333 84.295C8.44291 84.3349 8.53986 84.3555 8.63789 84.3555C8.73593 84.3555 8.83287 84.3349 8.92245 84.295C9.01203 84.2551 9.09225 84.1969 9.15793 84.124C9.22361 84.0511 9.27327 83.9652 9.30372 83.8719C9.33417 83.7786 9.34472 83.6799 9.33468 83.5822V80.0701H15.8452L19.3557 83.7665C19.4187 83.8357 19.496 83.8904 19.5821 83.927C19.6682 83.9635 19.7612 83.9811 19.8547 83.9783C19.9482 83.9756 20.0401 83.9527 20.1239 83.9112C20.2078 83.8697 20.2817 83.8105 20.3406 83.7378C20.4687 83.5831 20.5366 83.3872 20.5318 83.1863C20.5271 82.9854 20.45 82.793 20.3148 82.6446L17.8699 80.07H35.1412C35.3323 80.0504 35.5093 79.9605 35.6381 79.8176C35.7668 79.6748 35.838 79.4893 35.838 79.2969C35.838 79.1046 35.7668 78.919 35.6381 78.7762C35.5093 78.6334 35.3323 78.5435 35.1412 78.5238Z" fill="#464646"/>
<path d="M8.66575 79.8053C8.80836 79.8004 8.94347 79.7402 9.04261 79.6374C9.14176 79.5347 9.19717 79.3973 9.19717 79.2544C9.19717 79.1116 9.14176 78.9743 9.04261 78.8715C8.94347 78.7687 8.80836 78.7085 8.66575 78.7036C8.52314 78.7085 8.38802 78.7687 8.28888 78.8715C8.18974 78.9743 8.13432 79.1116 8.13432 79.2544C8.13432 79.3973 8.18974 79.5347 8.28888 79.6374C8.38802 79.7402 8.52314 79.8004 8.66575 79.8053Z" fill="#616161"/>
<path d="M8.66575 83.9453C8.80836 83.9403 8.94347 83.8801 9.04261 83.7774C9.14176 83.6746 9.19717 83.5373 9.19717 83.3944C9.19717 83.2515 9.14176 83.1142 9.04261 83.0115C8.94347 82.9087 8.80836 82.8485 8.66575 82.8436C8.52314 82.8485 8.38802 82.9087 8.28888 83.0115C8.18974 83.1142 8.13432 83.2515 8.13432 83.3944C8.13432 83.5373 8.18974 83.6746 8.28888 83.7774C8.38802 83.8801 8.52314 83.9403 8.66575 83.9453Z" fill="#616161"/>
<path d="M11.8013 75.3C11.9439 75.2951 12.079 75.2349 12.1782 75.1321C12.2773 75.0294 12.3327 74.8921 12.3327 74.7492C12.3327 74.6063 12.2773 74.469 12.1782 74.3662C12.079 74.2634 11.9439 74.2032 11.8013 74.1983C11.6587 74.2032 11.5236 74.2634 11.4244 74.3662C11.3253 74.469 11.2699 74.6063 11.2699 74.7492C11.2699 74.8921 11.3253 75.0294 11.4244 75.1321C11.5236 75.2349 11.6587 75.2951 11.8013 75.3Z" fill="#616161"/>
<path d="M8.66576 75.6769C8.80835 75.672 8.94345 75.6118 9.04258 75.509C9.14171 75.4062 9.19711 75.2689 9.19711 75.1261C9.19711 74.9832 9.14171 74.8459 9.04258 74.7431C8.94345 74.6404 8.80835 74.5802 8.66576 74.5752C8.52317 74.5802 8.38806 74.6404 8.28893 74.7431C8.18981 74.8459 8.13441 74.9832 8.13441 75.1261C8.13441 75.2689 8.18981 75.4062 8.28893 75.509C8.38806 75.6118 8.52317 75.672 8.66576 75.6769Z" fill="#616161"/>
<path d="M15.8149 79.8053C15.9575 79.8004 16.0926 79.7402 16.1917 79.6374C16.2909 79.5347 16.3463 79.3973 16.3463 79.2544C16.3463 79.1116 16.2909 78.9743 16.1917 78.8715C16.0926 78.7687 15.9575 78.7085 15.8149 78.7036C15.6723 78.7085 15.5371 78.7687 15.438 78.8715C15.3388 78.9743 15.2834 79.1116 15.2834 79.2544C15.2834 79.3973 15.3388 79.5347 15.438 79.6374C15.5371 79.7402 15.6723 79.8004 15.8149 79.8053Z" fill="#616161"/>
<path d="M19.7371 79.6591C19.8797 79.6542 20.0148 79.594 20.114 79.4912C20.2131 79.3885 20.2685 79.2512 20.2685 79.1083C20.2685 78.9654 20.2131 78.8281 20.114 78.7253C20.0148 78.6225 19.8797 78.5623 19.7371 78.5574C19.5945 78.5623 19.4594 78.6225 19.3603 78.7253C19.2611 78.8281 19.2057 78.9654 19.2057 79.1083C19.2057 79.2512 19.2611 79.3885 19.3603 79.4912C19.4594 79.594 19.5945 79.6542 19.7371 79.6591Z" fill="#616161"/>
<path d="M19.7371 83.6902C19.8797 83.6852 20.0148 83.6251 20.114 83.5223C20.2131 83.4195 20.2685 83.2822 20.2685 83.1393C20.2685 82.9964 20.2131 82.8591 20.114 82.7564C20.0148 82.6536 19.8797 82.5934 19.7371 82.5885C19.5945 82.5934 19.4594 82.6536 19.3603 82.7564C19.2611 82.8591 19.2057 82.9964 19.2057 83.1393C19.2057 83.2822 19.2611 83.4195 19.3603 83.5223C19.4594 83.6251 19.5945 83.6852 19.7371 83.6902Z" fill="#616161"/>
<path d="M4.86125 79.8053C5.00385 79.8004 5.13898 79.7402 5.23812 79.6374C5.33726 79.5347 5.39267 79.3973 5.39267 79.2544C5.39267 79.1116 5.33726 78.9743 5.23812 78.8715C5.13898 78.7687 5.00385 78.7085 4.86125 78.7036C4.71864 78.7085 4.58352 78.7687 4.48438 78.8715C4.38524 78.9743 4.32983 79.1116 4.32983 79.2544C4.32983 79.3973 4.38524 79.5347 4.48438 79.6374C4.58352 79.7402 4.71864 79.8004 4.86125 79.8053Z" fill="#616161"/>
<path d="M34.5447 79.8053C34.6873 79.8004 34.8224 79.7402 34.9215 79.6374C35.0207 79.5347 35.0761 79.3973 35.0761 79.2544C35.0761 79.1116 35.0207 78.9743 34.9215 78.8715C34.8224 78.7687 34.6873 78.7085 34.5447 78.7036C34.4021 78.7085 34.2669 78.7687 34.1678 78.8715C34.0686 78.9743 34.0132 79.1116 34.0132 79.2544C34.0132 79.3973 34.0686 79.5347 34.1678 79.6374C34.2669 79.7402 34.4021 79.8004 34.5447 79.8053Z" fill="#616161"/>
<path d="M33.9438 78.5101H5.53044C5.12046 78.5101 4.72727 78.347 4.43738 78.0567C4.14748 77.7664 3.98462 77.3726 3.98462 76.9621V56.1224H35.4896V76.9621C35.4896 77.3726 35.3267 77.7664 35.0368 78.0567C34.7469 78.347 34.3538 78.5101 33.9438 78.5101Z" fill="#584432"/>
<path d="M23.3496 62.5705C23.2478 62.4147 23.0992 62.4102 22.9299 62.4051C22.9107 62.4045 22.8912 62.4039 22.8716 62.4031C22.8566 62.4024 22.84 62.4027 22.8228 62.403C22.7541 62.4041 22.6737 62.4053 22.6333 62.3476C22.5864 62.2807 22.5908 62.1514 22.5945 62.0446C22.5956 62.0109 22.5967 61.9794 22.5961 61.9529C22.5895 61.7049 22.5757 61.4414 22.48 61.3534C22.4079 61.2873 22.1919 61.2965 21.9928 61.3049C21.9283 61.3076 21.8655 61.3103 21.8099 61.3103H17.5714C17.4861 61.3103 17.3966 61.3033 17.3087 61.2965C17.1375 61.2832 16.9721 61.2704 16.8547 61.3103C16.6843 61.3685 16.6728 61.6746 16.6619 61.9627L16.6613 61.9782C16.6522 62.2161 16.5933 62.3997 16.3979 62.3812C16.1707 62.36 15.9446 62.3533 15.8419 62.559C15.7206 62.8024 15.7456 63.0571 15.7904 63.5134C15.7968 63.5785 15.8036 63.6478 15.8105 63.7218H23.4151C23.4194 63.6677 23.4241 63.6144 23.4286 63.5619C23.4642 63.1514 23.4953 62.7937 23.3496 62.5705Z" fill="#785A3F"/>
<path fill-rule="evenodd" clip-rule="evenodd" d="M16.4027 64.1743C16.5215 65.7821 16.6389 67.3917 16.7564 69.0013C16.8202 69.8753 16.8841 70.7503 16.948 71.624H17.1907C17.2072 71.7608 17.2261 71.9296 17.2461 72.1076C17.2866 72.469 17.3313 72.8682 17.3689 73.1135H17.3958C17.6429 73.023 19.3515 72.2925 19.3523 69.3844C19.352 69.3761 19.3523 69.3678 19.3531 69.3596H18.931C18.9106 69.3594 18.8907 69.3525 18.8746 69.3401C18.8585 69.3277 18.8469 69.3104 18.8417 69.2909C18.8006 69.1893 18.7674 69.0846 18.7425 68.978C18.4942 69.1183 18.297 69.3325 18.179 69.5901C18.067 69.3262 18.0523 69.0319 18.1376 68.7585C18.2228 68.485 18.4025 68.2499 18.6453 68.0942C18.6484 67.2456 18.9661 66.4275 19.5381 65.7949L19.5471 65.7871C19.5637 65.7727 19.585 65.7647 19.6071 65.7645C19.6198 65.7646 19.6324 65.7673 19.6441 65.7725C19.6559 65.7778 19.6664 65.7854 19.675 65.7949C20.2538 66.4284 20.5698 67.2543 20.56 68.1079C20.8073 68.2593 20.9906 68.4943 21.076 68.7692C21.1614 69.0441 21.143 69.3403 21.0243 69.6028C20.9069 69.3448 20.7096 69.1304 20.4608 68.9907C20.4456 69.0941 20.4176 69.1953 20.3774 69.2919C20.3636 69.3331 20.3358 69.3596 20.308 69.3596H19.8578C19.8585 69.3645 19.859 69.3695 19.8593 69.3744L19.8595 69.3756V69.378C19.8597 69.3822 19.8597 69.3865 19.8595 69.3908C19.8657 72.3825 21.6823 73.0615 21.8354 73.1135H21.8878C21.9012 72.8778 21.9447 72.5527 21.9871 72.2357C22.0164 72.0173 22.0451 71.8027 22.0631 71.624H22.3085C22.3871 70.5235 22.4679 69.426 22.5487 68.3286C22.6521 66.9248 22.7555 65.5201 22.8542 64.1097H16.4184C16.3999 64.1133 16.4012 64.1436 16.4027 64.1743Z" fill="#785A3F"/>
<path d="M39.3038 51.0981V53.9315C39.3304 54.484 39.1376 55.0247 38.7675 55.4353C38.3974 55.846 37.88 56.0933 37.3284 56.1233H2.14374C1.59248 56.0932 1.07556 55.8457 0.706017 55.4349C0.336477 55.0242 0.144391 54.4836 0.17176 53.9315V51.0981C0.145145 50.5465 0.337598 50.0068 0.70709 49.5968C1.07658 49.1868 1.59308 48.94 2.14374 48.9102H37.3284C37.8794 48.9398 38.3964 49.1865 38.7664 49.5964C39.1365 50.0063 39.3297 50.5461 39.3038 51.0981Z" fill="#785A3F"/>
</svg>
